<?xml version="1.0" encoding="iso-8859-1"?>
<!-- Generator: Adobe Illustrator 21.0.0, SVG Export Plug-In . SVG Version: 6.00 Build 0)  -->
<svg xmlns="http://www.w3.org/2000/svg" xmlns:xlink="http://www.w3.org/1999/xlink" version="1.1" id="Capa_1" x="0px" y="0px" viewBox="0 0 512 512" style="enable-background:new 0 0 512 512;" xml:space="preserve" width="512" height="512">
<g>
	<g>
		<path style="fill:#00DDC1;" d="M120.07,474.104c-15.767,0-28.784-11.832-30.282-27.522L75.969,302.004    c0-8.045,2.625-12.26,6.89-14.449l49.001-25.147c3.965-2.035,8.702-1.858,12.503,0.464c3.802,2.322,6.121,6.456,6.121,10.912    V443.69C150.484,460.46,136.841,474.104,120.07,474.104z"/>
	</g>
	<g>
		<path style="fill:#00AB94;" d="M150.484,443.69V273.784c0-4.455,2.319-8.59,6.121-10.912c3.801-2.322,8.538-2.499,12.503-0.464    l49.001,25.147c4.265,2.189,6.89,6.403,6.89,14.449l-13.819,144.579c-1.498,15.69-14.515,27.522-30.282,27.522    C164.128,474.104,150.484,460.46,150.484,443.69z"/>
	</g>
	<path style="fill:#BE003B;" d="M21.001,317.001v-302c0-8.284,6.716-15,15-15H256c8.284,0,15,6.716,15,15v302   c0,5.294-2.791,10.196-7.343,12.898c-4.553,2.703-10.191,2.806-14.84,0.27c-7.115-3.881-13.503-8.752-19.68-13.463   C219.222,309.143,209.855,302,201,302c-4.784,0-11.296,5.727-17.594,11.264c-9.493,8.348-21.307,18.736-37.406,18.736   c-16.471,0-28.8-10.218-38.707-18.429c-6.718-5.568-13.063-10.827-18.759-11.776c-10.822-1.794-32.95,16.938-42.18,26.071   S21.001,322.906,21.001,317.001z"/>
	<g>
		<path style="fill:#FDBF00;" d="M241,317.001v-302c0-8.284,6.716-15,15-15h220c8.284,0,15,6.716,15,15v302    c0,5.294-5.833,21.5-22.183,13.168c-7.221-3.68-13.503-8.752-19.68-13.463C439.221,309.143,429.854,302,421,302    c-4.784,0-11.297,5.727-17.595,11.265c-9.493,8.347-21.307,18.736-37.405,18.736c-16.471,0-28.8-10.218-38.707-18.429    c-6.718-5.568-13.063-10.827-18.759-11.776c-10.784-1.795-34.157,19.35-42.179,26.069S241,322.906,241,317.001z"/>
	</g>
	<path style="fill:#97002C;" d="M91,119c-8.284,0-15,6.716-15,15v171.115c4.78-2.469,9.196-3.872,12.534-3.319   c5.329,0.888,11.227,5.549,17.466,10.705V312.5V134C106,125.716,99.284,119,91,119z"/>
	<path style="fill:#97002C;" d="M201,211.001c-8.284,0-15,6.716-15,15v84.995c5.455-4.728,10.871-8.995,15-8.995   c4.845,0,9.843,2.146,15,5.32v-81.32C216,217.717,209.284,211.001,201,211.001z"/>
	<path style="fill:#DB9D00;" d="M365,163.501c-8.284,0-15,6.716-15,15v150.201c4.866,2.016,10.173,3.299,16,3.299   c5.072,0,9.717-1.032,14-2.706V178.501C380,170.217,373.284,163.501,365,163.501z"/>
	<path style="fill:#DB9D00;" d="M421,190c-8.284,0-15,6.716-15,15v105.995c5.455-4.728,10.871-8.995,15-8.995   c4.844,0,9.843,2.146,15,5.321V205C436,196.716,429.284,190,421,190z"/>
	<path style="fill:#DB9D00;" d="M307.25,273.375c-8.284,0-15,6.716-15,15v19.31c6.226-3.917,12.171-6.573,16.284-5.888   c4.243,0.707,8.845,3.806,13.694,7.641c0.004-0.146,0.022-0.29,0.022-0.437v-20.625C322.25,280.091,315.534,273.375,307.25,273.375   z"/>
	<path style="fill:#00607F;" d="M497,482h-6V15.001v0v0c0-8.284-6.716-15-15-15H256H36c-4.142,0-7.892,1.679-10.607,4.394   C22.679,7.108,21,10.859,21,15.001V482h-6c-8.284,0-15,6.716-15,15s6.716,15,15,15h42c8.284,0,15-6.716,15-15s-6.716-15-15-15h-6   V30h190v452h-6c-8.284,0-15,6.716-15,15s6.716,15,15,15h42c8.284,0,15-6.716,15-15s-6.716-15-15-15h-6V30h190v452h-6   c-8.284,0-15,6.716-15,15s6.716,15,15,15h42c8.284,0,15-6.716,15-15S505.284,482,497,482z"/>
	<path style="fill:#002C3C;" d="M497,482h-6V15.001v0v0c0-8.284-6.716-15-15-15H256v512h21c8.284,0,15-6.716,15-15s-6.716-15-15-15   h-6V30h190v452h-6c-8.284,0-15,6.716-15,15s6.716,15,15,15h42c8.284,0,15-6.716,15-15S505.284,482,497,482z"/>
</g>















</svg>
